<svg width="59" height="59" viewBox="0 0 59 59" fill="none" xmlns="http://www.w3.org/2000/svg">
<g clip-path="url(#clip0_15_425)">
<mask id="mask0_15_425" style="mask-type:luminance" maskUnits="userSpaceOnUse" x="0" y="0" width="59" height="59">
<path d="M58.25 0.75H0.75V58.25H58.25V0.75Z" fill="white"/>
</mask>
<g mask="url(#mask0_15_425)">
<path d="M49.708 11.7278C45.9859 9.98628 42.006 8.72065 37.8453 8C37.3342 8.92386 36.7373 10.1665 36.3257 11.155C31.9027 10.4898 27.5203 10.4898 23.1786 11.155C22.7671 10.1665 22.1565 8.92386 21.641 8C17.4757 8.72065 13.4912 9.99094 9.76921 11.737C2.26175 23.0817 0.226598 34.1447 1.24418 45.0506C6.22352 48.769 11.0491 51.0279 15.7932 52.506C16.9646 50.8939 18.0093 49.1801 18.9093 47.3741C17.1952 46.7227 15.5535 45.9191 14.0024 44.986C14.4139 44.681 14.8164 44.3624 15.2053 44.0343C24.6666 48.4596 34.9463 48.4596 44.2944 44.0343C44.688 44.3624 45.0904 44.681 45.4975 44.986C43.9416 45.9236 42.2955 46.7273 40.5815 47.3787C41.4814 49.1801 42.5216 50.8986 43.6975 52.5106C48.4462 51.0325 53.2763 48.7737 58.2556 45.0506C59.4496 32.4078 56.216 21.4466 49.708 11.7278ZM20.1983 38.3436C17.3581 38.3436 15.0289 35.6921 15.0289 32.4633C15.0289 29.2345 17.3083 26.5784 20.1983 26.5784C23.0882 26.5784 25.4173 29.2298 25.3675 32.4633C25.372 35.6921 23.0882 38.3436 20.1983 38.3436ZM39.3016 38.3436C36.4614 38.3436 34.1322 35.6921 34.1322 32.4633C34.1322 29.2345 36.4116 26.5784 39.3016 26.5784C42.1915 26.5784 44.5206 29.2298 44.4709 32.4633C44.4709 35.6921 42.1915 38.3436 39.3016 38.3436Z" fill="#7289DA"/>
</g>
</g>
<defs>
<clipPath id="clip0_15_425">
<rect width="57.5" height="57.5" fill="white" transform="translate(0.75 0.75)"/>
</clipPath>
</defs>
</svg>
