<svg width="58" height="59" viewBox="0 0 58 59" fill="none" xmlns="http://www.w3.org/2000/svg">
<path d="M29 2.36694C13.7266 2.36694 1.14844 14.7654 1.14844 30.2185C1.14844 42.4373 9.14453 52.8591 20.2852 56.6326C21.7227 56.9021 22.1719 56.0037 22.1719 55.3748C22.1719 54.7459 22.1719 52.949 22.082 50.5232C14.3555 52.3201 12.7383 46.7498 12.7383 46.7498C11.4805 43.6052 9.59375 42.7068 9.59375 42.7068C7.07812 40.9099 9.68359 40.9099 9.68359 40.9099C12.4688 40.9998 13.9961 43.7849 13.9961 43.7849C16.4219 48.0974 20.5547 46.8396 22.082 46.031C22.3516 44.2341 23.0703 42.9763 23.8789 42.2576C17.7695 41.6287 11.2109 39.2029 11.2109 28.6013C11.2109 25.5466 12.3789 23.1209 14.0859 21.2341C13.8164 20.6052 12.8281 17.7302 14.3555 13.8669C14.3555 13.8669 16.7812 13.1482 22.082 16.7419C24.3281 16.113 26.6641 15.7537 29.0898 15.7537C31.5156 15.7537 33.9414 16.0232 36.0977 16.7419C41.3984 13.238 43.7344 13.8669 43.7344 13.8669C45.2617 17.6404 44.3633 20.6052 44.0039 21.2341C45.8008 23.1209 46.8789 25.6365 46.8789 28.6013C46.8789 39.2029 40.3203 41.6287 34.2109 42.2576C35.1992 43.156 36.0977 44.9529 36.0977 47.4685C36.0977 51.2419 36.0078 54.2068 36.0078 55.1052C36.0078 55.824 36.5469 56.6326 37.8945 56.363C48.8555 52.6794 56.8516 42.3474 56.8516 30.0388C56.7617 14.7654 44.2734 2.36694 29 2.36694Z" fill="white"/>
</svg>
