<svg width="59" height="59" viewBox="0 0 59 59" fill="none" xmlns="http://www.w3.org/2000/svg">
<path d="M29.5 2.36694C14.2266 2.36694 1.64844 14.7654 1.64844 30.2185C1.64844 42.4373 9.64453 52.8591 20.7852 56.6326C22.2227 56.9021 22.6719 56.0037 22.6719 55.3748C22.6719 54.7459 22.6719 52.949 22.582 50.5232C14.8555 52.3201 13.2383 46.7498 13.2383 46.7498C11.9805 43.6052 10.0938 42.7068 10.0938 42.7068C7.57812 40.9099 10.1836 40.9099 10.1836 40.9099C12.9688 40.9998 14.4961 43.7849 14.4961 43.7849C16.9219 48.0974 21.0547 46.8396 22.582 46.031C22.8516 44.2341 23.5703 42.9763 24.3789 42.2576C18.2695 41.6287 11.7109 39.2029 11.7109 28.6013C11.7109 25.5466 12.8789 23.1209 14.5859 21.2341C14.3164 20.6052 13.3281 17.7302 14.8555 13.8669C14.8555 13.8669 17.2812 13.1482 22.582 16.7419C24.8281 16.113 27.1641 15.7537 29.5898 15.7537C32.0156 15.7537 34.4414 16.0232 36.5977 16.7419C41.8984 13.238 44.2344 13.8669 44.2344 13.8669C45.7617 17.6404 44.8633 20.6052 44.5039 21.2341C46.3008 23.1209 47.3789 25.6365 47.3789 28.6013C47.3789 39.2029 40.8203 41.6287 34.7109 42.2576C35.6992 43.156 36.5977 44.9529 36.5977 47.4685C36.5977 51.2419 36.5078 54.2068 36.5078 55.1052C36.5078 55.824 37.0469 56.6326 38.3945 56.363C49.3555 52.6794 57.3516 42.3474 57.3516 30.0388C57.2617 14.7654 44.7734 2.36694 29.5 2.36694Z" fill="black"/>
</svg>
