<svg width="75" height="75" viewBox="0 0 75 75" fill="none" xmlns="http://www.w3.org/2000/svg">
<path d="M75 40.8784C74.3432 47.986 71.6757 54.7595 67.3097 60.4064C62.9437 66.0533 57.0598 70.34 50.3465 72.765C43.6331 75.1899 36.368 75.6527 29.4012 74.0992C22.4344 72.5458 16.0541 69.0404 11.0069 63.9932C5.95961 58.9459 2.45419 52.5656 0.900756 45.5988C-0.652672 38.632 -0.189855 31.3669 2.23506 24.6535C4.65997 17.9402 8.94667 12.0563 14.5936 7.69029C20.2405 3.3243 27.014 0.656833 34.1216 0C29.9603 5.62972 27.9579 12.566 28.4785 19.5474C28.9991 26.5287 32.0082 33.0913 36.9585 38.0415C41.9087 42.9918 48.4713 46.0009 55.4526 46.5215C62.434 47.0421 69.3703 45.0397 75 40.8784Z" fill="#504945"/>
<path d="M75 40.8784C74.3432 47.986 71.6757 54.7595 67.3097 60.4064C62.9437 66.0533 57.0598 70.34 50.3465 72.765C43.6331 75.1899 36.368 75.6527 29.4012 74.0992C22.4344 72.5458 16.0541 69.0404 11.0069 63.9932C5.95961 58.9459 2.45419 52.5656 0.900756 45.5988C-0.652672 38.632 -0.189855 31.3669 2.23506 24.6535C4.65997 17.9402 8.94667 12.0563 14.5936 7.69029C20.2405 3.3243 27.014 0.656833 34.1216 0C29.9603 5.62972 27.9579 12.566 28.4785 19.5474C28.9991 26.5287 32.0082 33.0913 36.9585 38.0415C41.9087 42.9918 48.4713 46.0009 55.4526 46.5215C62.434 47.0421 69.3703 45.0397 75 40.8784Z" stroke="#504945"/>
</svg>
