<svg width="91" height="91" viewBox="0 0 91 91" fill="none" xmlns="http://www.w3.org/2000/svg">
<path d="M69.875 45.5C69.875 39.0353 67.3069 32.8355 62.7357 28.2643C58.1645 23.6931 51.9647 21.125 45.5 21.125C39.0353 21.125 32.8355 23.6931 28.2643 28.2643C23.6931 32.8355 21.125 39.0353 21.125 45.5" fill="#D5C4A1"/>
<path d="M69.875 45.5C69.875 39.0353 67.3069 32.8355 62.7357 28.2643C58.1645 23.6931 51.9647 21.125 45.5 21.125C39.0353 21.125 32.8355 23.6931 28.2643 28.2643C23.6931 32.8355 21.125 39.0353 21.125 45.5" stroke="#D5C4A1" stroke-width="1.5" stroke-linecap="round" stroke-linejoin="round"/>
<path d="M19.2125 19.2125L18.725 18.725M71.7875 19.2125L72.275 18.725M45.5 8.3V8M8.3 45.5H8M83 45.5H82.7" stroke="#D5C4A1" stroke-width="2" stroke-linecap="round" stroke-linejoin="round"/>
<path d="M15.5 56.75H75.5M23 68H68M34.25 79.25H56.75" stroke="#D5C4A1" stroke-width="1.5" stroke-miterlimit="10" stroke-linecap="round" stroke-linejoin="round"/>
</svg>
