<svg width="59" height="58" viewBox="0 0 59 58" fill="none" xmlns="http://www.w3.org/2000/svg">
<path d="M56.1836 15.613C55.5547 13.1873 53.668 11.3005 51.2422 10.6716C46.9297 9.50366 29.5 9.50366 29.5 9.50366C29.5 9.50366 12.0703 9.50366 7.75781 10.6716C5.33203 11.3005 3.44531 13.1873 2.81641 15.613C1.64844 20.0154 1.64844 28.9998 1.64844 28.9998C1.64844 28.9998 1.64844 38.074 2.81641 42.3865C3.44531 44.8123 5.33203 46.699 7.75781 47.3279C12.0703 48.4958 29.5 48.4958 29.5 48.4958C29.5 48.4958 46.9297 48.4958 51.2422 47.3279C53.668 46.699 55.5547 44.8123 56.1836 42.3865C57.3516 38.074 57.3516 28.9998 57.3516 28.9998C57.3516 28.9998 57.3516 20.0154 56.1836 15.613ZM23.9297 37.3552V20.6443L38.3945 28.9998L23.9297 37.3552Z" fill="#FF0000"/>
</svg>
